<svg xmlns="http://www.w3.org/2000/svg" viewBox="0 0 1200 760" role="img" aria-labelledby="sprite-title sprite-desc">
  <title id="sprite-title">Tech stack icon sprite preview</title>
  <desc id="sprite-desc">A local SVG sprite containing technology logos used by the Enrico Feraldo portfolio.</desc>
  <symbol id="icon-html" viewBox="0 0 24 24"><path d="M1.5 0h21l-1.91 21.563L11.977 24l-8.564-2.438L1.5 0zm7.031 9.75l-.232-2.718 10.059.003.23-2.622L5.412 4.41l.698 8.01h9.126l-.326 3.426-2.91.804-2.955-.81-.188-2.11H6.248l.33 4.171L12 19.351l5.379-1.443.744-8.157H8.531z"/></symbol>
  <symbol id="icon-css" viewBox="0 0 24 24"><path d="M0 0v20.16A3.84 3.84 0 0 0 3.84 24h16.32A3.84 3.84 0 0 0 24 20.16V3.84A3.84 3.84 0 0 0 20.16 0Zm14.256 13.08c1.56 0 2.28 1.08 2.304 2.64h-1.608c.024-.288-.048-.6-.144-.84-.096-.192-.288-.264-.552-.264-.456 0-.696.264-.696.84-.024.576.288.888.768 1.08.72.288 1.608.744 1.92 1.296q.432.648.432 1.656c0 1.608-.912 2.592-2.496 2.592-1.656 0-2.4-1.032-2.424-2.688h1.68c0 .792.264 1.176.792 1.176.264 0 .456-.072.552-.24.192-.312.24-1.176-.048-1.512-.312-.408-.912-.6-1.32-.816q-.828-.396-1.224-.936c-.24-.36-.36-.888-.36-1.536 0-1.44.936-2.472 2.424-2.448m5.4 0c1.584 0 2.304 1.08 2.328 2.64h-1.608c0-.288-.048-.6-.168-.84-.096-.192-.264-.264-.528-.264-.48 0-.72.264-.72.84s.288.888.792 1.08c.696.288 1.608.744 1.92 1.296.264.432.408.984.408 1.656.024 1.608-.888 2.592-2.472 2.592-1.68 0-2.424-1.056-2.448-2.688h1.68c0 .744.264 1.176.792 1.176.264 0 .456-.072.552-.24.216-.312.264-1.176-.048-1.512-.288-.408-.888-.6-1.32-.816-.552-.264-.96-.576-1.2-.936s-.36-.888-.36-1.536c-.024-1.44.912-2.472 2.4-2.448m-11.031.018c.711-.006 1.419.198 1.839.63.432.432.672 1.128.648 1.992H9.336c.024-.456-.096-.792-.432-.96-.312-.144-.768-.048-.888.24-.12.264-.192.576-.168.864v3.504c0 .744.264 1.128.768 1.128a.65.65 0 0 0 .552-.264c.168-.24.192-.552.168-.84h1.776c.096 1.632-.984 2.712-2.568 2.688-1.536 0-2.496-.864-2.472-2.472v-4.032c0-.816.24-1.44.696-1.848.432-.408 1.146-.624 1.857-.63"/></symbol>
  <symbol id="icon-javascript" viewBox="0 0 24 24"><path d="M0 0h24v24H0V0zm22.034 18.276c-.175-1.095-.888-2.015-3.003-2.873-.736-.345-1.554-.585-1.797-1.14-.091-.33-.105-.51-.046-.705.15-.646.915-.84 1.515-.66.39.12.75.42.976.9 1.034-.676 1.034-.676 1.755-1.125-.27-.42-.404-.601-.586-.78-.63-.705-1.469-1.065-2.834-1.034l-.705.089c-.676.165-1.32.525-1.71 1.005-1.14 1.291-.811 3.541.569 4.471 1.365 1.02 3.361 1.244 3.616 2.205.24 1.17-.87 1.545-1.966 1.41-.811-.18-1.26-.586-1.755-1.336l-1.83 1.051c.21.48.45.689.81 1.109 1.74 1.756 6.09 1.666 6.871-1.004.029-.09.24-.705.074-1.65l.046.067zm-8.983-7.245h-2.248c0 1.938-.009 3.864-.009 5.805 0 1.232.063 2.363-.138 2.711-.33.689-1.18.601-1.566.48-.396-.196-.597-.466-.83-.855-.063-.105-.11-.196-.127-.196l-1.825 1.125c.305.63.75 1.172 1.324 1.517.855.51 2.004.675 3.207.405.783-.226 1.458-.691 1.811-1.411.51-.93.402-2.07.397-3.346.012-2.054 0-4.109 0-6.179l.004-.056z"/></symbol>
  <symbol id="icon-php" viewBox="0 0 24 24"><path d="M7.01 10.207h-.944l-.515 2.648h.838c.556 0 .97-.105 1.242-.314.272-.21.455-.559.55-1.049.092-.47.05-.802-.124-.995-.175-.193-.523-.29-1.047-.29zM12 5.688C5.373 5.688 0 8.514 0 12s5.373 6.313 12 6.313S24 15.486 24 12c0-3.486-5.373-6.312-12-6.312zm-3.26 7.451c-.261.25-.575.438-.917.551-.336.108-.765.164-1.285.164H5.357l-.327 1.681H3.652l1.23-6.326h2.65c.797 0 1.378.209 1.744.628.366.418.476 1.002.33 1.752a2.836 2.836 0 0 1-.305.847c-.143.255-.33.49-.561.703zm4.024.715l.543-2.799c.063-.318.039-.536-.068-.651-.107-.116-.336-.174-.687-.174H11.46l-.704 3.625H9.388l1.23-6.327h1.367l-.327 1.682h1.218c.767 0 1.295.134 1.586.401s.378.7.263 1.299l-.572 2.944h-1.389zm7.597-2.265a2.782 2.782 0 0 1-.305.847c-.143.255-.33.49-.561.703a2.44 2.44 0 0 1-.917.551c-.336.108-.765.164-1.286.164h-1.18l-.327 1.682h-1.378l1.23-6.326h2.649c.797 0 1.378.209 1.744.628.366.417.477 1.001.331 1.751zM17.766 10.207h-.943l-.516 2.648h.838c.557 0 .971-.105 1.242-.314.272-.21.455-.559.551-1.049.092-.47.049-.802-.125-.995s-.524-.29-1.047-.29z"/></symbol>
  <symbol id="icon-sql" viewBox="0 0 24 24"><rect x="2" y="4" width="20" height="16" rx="3" fill="none" stroke="currentColor" stroke-width="2"/><text x="12" y="15.4" text-anchor="middle" font-size="6.4" font-family="Arial, sans-serif" font-weight="700" fill="currentColor">SQL</text></symbol>
  <symbol id="icon-postgresql" viewBox="0 0 24 24"><path d="M23.5594 14.7228a.5269.5269 0 0 0-.0563-.1191c-.139-.2632-.4768-.3418-1.0074-.2321-1.6533.3411-2.2935.1312-2.5256-.0191 1.342-2.0482 2.445-4.522 3.0411-6.8297.2714-1.0507.7982-3.5237.1222-4.7316a1.5641 1.5641 0 0 0-.1509-.235C21.6931.9086 19.8007.0248 17.5099.0005c-1.4947-.0158-2.7705.3461-3.1161.4794a9.449 9.449 0 0 0-.5159-.0816 8.044 8.044 0 0 0-1.3114-.1278c-1.1822-.0184-2.2038.2642-3.0498.8406-.8573-.3211-4.7888-1.645-7.2219.0788C.9359 2.1526.3086 3.8733.4302 6.3043c.0409.818.5069 3.334 1.2423 5.7436.4598 1.5065.9387 2.7019 1.4334 3.582.553.9942 1.1259 1.5933 1.7143 1.7895.4474.1491 1.1327.1441 1.8581-.7279.8012-.9635 1.5903-1.8258 1.9446-2.2069.4351.2355.9064.3625 1.39.3772a.0569.0569 0 0 0 .0004.0041 11.0312 11.0312 0 0 0-.2472.3054c-.3389.4302-.4094.5197-1.5002.7443-.3102.064-1.1344.2339-1.1464.8115-.0025.1224.0329.2309.0919.3268.2269.4231.9216.6097 1.015.6331 1.3345.3335 2.5044.092 3.3714-.6787-.017 2.231.0775 4.4174.3454 5.0874.2212.5529.7618 1.9045 2.4692 1.9043.2505 0 .5263-.0291.8296-.0941 1.7819-.3821 2.5557-1.1696 2.855-2.9059.1503-.8707.4016-2.8753.5388-4.1012.0169-.0703.0357-.1207.057-.1362.0007-.0005.0697-.0471.4272.0307a.3673.3673 0 0 0 .0443.0068l.2539.0223.0149.001c.8468.0384 1.9114-.1426 2.5312-.4308.6438-.2988 1.8057-1.0323 1.5951-1.6698zM2.371 11.8765c-.7435-2.4358-1.1779-4.8851-1.2123-5.5719-.1086-2.1714.4171-3.6829 1.5623-4.4927 1.8367-1.2986 4.8398-.5408 6.108-.13-.0032.0032-.0066.0061-.0098.0094-2.0238 2.044-1.9758 5.536-1.9708 5.7495-.0002.0823.0066.1989.0162.3593.0348.5873.0996 1.6804-.0735 2.9184-.1609 1.1504.1937 2.2764.9728 3.0892.0806.0841.1648.1631.2518.2374-.3468.3714-1.1004 1.1926-1.9025 2.1576-.5677.6825-.9597.5517-1.0886.5087-.3919-.1307-.813-.5871-1.2381-1.3223-.4796-.839-.9635-2.0317-1.4155-3.5126zm6.0072 5.0871c-.1711-.0428-.3271-.1132-.4322-.1772.0889-.0394.2374-.0902.4833-.1409 1.2833-.2641 1.4815-.4506 1.9143-1.0002.0992-.126.2116-.2687.3673-.4426a.3549.3549 0 0 0 .0737-.1298c.1708-.1513.2724-.1099.4369-.0417.156.0646.3078.26.3695.4752.0291.1016.0619.2945-.0452.4444-.9043 1.2658-2.2216 1.2494-3.1676 1.0128zm2.094-3.988-.0525.141c-.133.3566-.2567.6881-.3334 1.003-.6674-.0021-1.3168-.2872-1.8105-.8024-.6279-.6551-.9131-1.5664-.7825-2.5004.1828-1.3079.1153-2.4468.079-3.0586-.005-.0857-.0095-.1607-.0122-.2199.2957-.2621 1.6659-.9962 2.6429-.7724.4459.1022.7176.4057.8305.928.5846 2.7038.0774 3.8307-.3302 4.7363-.084.1866-.1633.3629-.2311.5454zm7.3637 4.5725c-.0169.1768-.0358.376-.0618.5959l-.146.4383a.3547.3547 0 0 0-.0182.1077c-.0059.4747-.054.6489-.115.8693-.0634.2292-.1353.4891-.1794 1.0575-.11 1.4143-.8782 2.2267-2.4172 2.5565-1.5155.3251-1.7843-.4968-2.0212-1.2217a6.5824 6.5824 0 0 0-.0769-.2266c-.2154-.5858-.1911-1.4119-.1574-2.5551.0165-.5612-.0249-1.9013-.3302-2.6462.0044-.2932.0106-.5909.019-.8918a.3529.3529 0 0 0-.0153-.1126 1.4927 1.4927 0 0 0-.0439-.208c-.1226-.4283-.4213-.7866-.7797-.9351-.1424-.059-.4038-.1672-.7178-.0869.067-.276.1831-.5875.309-.9249l.0529-.142c.0595-.16.134-.3257.213-.5012.4265-.9476 1.0106-2.2453.3766-5.1772-.2374-1.0981-1.0304-1.6343-2.2324-1.5098-.7207.0746-1.3799.3654-1.7088.5321a5.6716 5.6716 0 0 0-.1958.1041c.0918-1.1064.4386-3.1741 1.7357-4.4823a4.0306 4.0306 0 0 1 .3033-.276.3532.3532 0 0 0 .1447-.0644c.7524-.5706 1.6945-.8506 2.802-.8325.4091.0067.8017.0339 1.1742.081 1.939.3544 3.2439 1.4468 4.0359 2.3827.8143.9623 1.2552 1.9315 1.4312 2.4543-1.3232-.1346-2.2234.1268-2.6797.779-.9926 1.4189.543 4.1729 1.2811 5.4964.1353.2426.2522.4522.2889.5413.2403.5825.5515.9713.7787 1.2552.0696.087.1372.1714.1885.245-.4008.1155-1.1208.3825-1.0552 1.717-.0123.1563-.0423.4469-.0834.8148-.0461.2077-.0702.4603-.0994.7662zm.8905-1.6211c-.0405-.8316.2691-.9185.5967-1.0105a2.8566 2.8566 0 0 0 .135-.0406 1.202 1.202 0 0 0 .1342.103c.5703.3765 1.5823.4213 3.0068.1344-.2016.1769-.5189.3994-.9533.6011-.4098.1903-1.0957.333-1.7473.3636-.7197.0336-1.0859-.0807-1.1721-.151zm.5695-9.2712c-.0059.3508-.0542.6692-.1054 1.0017-.055.3576-.112.7274-.1264 1.1762-.0142.4368.0404.8909.0932 1.3301.1066.887.216 1.8003-.2075 2.7014a3.5272 3.5272 0 0 1-.1876-.3856c-.0527-.1276-.1669-.3326-.3251-.6162-.6156-1.1041-2.0574-3.6896-1.3193-4.7446.3795-.5427 1.3408-.5661 2.1781-.463zm.2284 7.0137a12.3762 12.3762 0 0 0-.0853-.1074l-.0355-.0444c.7262-1.1995.5842-2.3862.4578-3.4385-.0519-.4318-.1009-.8396-.0885-1.2226.0129-.4061.0666-.7543.1185-1.0911.0639-.415.1288-.8443.1109-1.3505.0134-.0531.0188-.1158.0118-.1902-.0457-.4855-.5999-1.938-1.7294-3.253-.6076-.7073-1.4896-1.4972-2.6889-2.0395.5251-.1066 1.2328-.2035 2.0244-.1859 2.0515.0456 3.6746.8135 4.8242 2.2824a.908.908 0 0 1 .0667.1002c.7231 1.3556-.2762 6.2751-2.9867 10.5405zm-8.8166-6.1162c-.025.1794-.3089.4225-.6211.4225a.5821.5821 0 0 1-.0809-.0056c-.1873-.026-.3765-.144-.5059-.3156-.0458-.0605-.1203-.178-.1055-.2844.0055-.0401.0261-.0985.0925-.1488.1182-.0894.3518-.1226.6096-.0867.3163.0441.6426.1938.6113.4186zm7.9305-.4114c.0111.0792-.049.201-.1531.3102-.0683.0717-.212.1961-.4079.2232a.5456.5456 0 0 1-.075.0052c-.2935 0-.5414-.2344-.5607-.3717-.024-.1765.2641-.3106.5611-.352.297-.0414.6111.0088.6356.1851z"/></symbol>
  <symbol id="icon-mysql" viewBox="0 0 24 24"><path d="M16.405 5.501c-.115 0-.193.014-.274.033v.013h.014c.054.104.146.18.214.273.054.107.1.214.154.32l.014-.015c.094-.066.14-.172.14-.333-.04-.047-.046-.094-.08-.14-.04-.067-.126-.1-.18-.153zM5.77 18.695h-.927a50.854 50.854 0 00-.27-4.41h-.008l-1.41 4.41H2.45l-1.4-4.41h-.01a72.892 72.892 0 00-.195 4.41H0c.055-1.966.192-3.81.41-5.53h1.15l1.335 4.064h.008l1.347-4.064h1.095c.242 2.015.384 3.86.428 5.53zm4.017-4.08c-.378 2.045-.876 3.533-1.492 4.46-.482.716-1.01 1.073-1.583 1.073-.153 0-.34-.046-.566-.138v-.494c.11.017.24.026.386.026.268 0 .483-.075.647-.222.197-.18.295-.382.295-.605 0-.155-.077-.47-.23-.944L6.23 14.615h.91l.727 2.36c.164.536.233.91.205 1.123.4-1.064.678-2.227.835-3.483zm12.325 4.08h-2.63v-5.53h.885v4.85h1.745zm-3.32.135l-1.016-.5c.09-.076.177-.158.255-.25.433-.506.648-1.258.648-2.253 0-1.83-.718-2.746-2.155-2.746-.704 0-1.254.232-1.65.697-.43.508-.646 1.256-.646 2.245 0 .972.19 1.686.574 2.14.35.41.877.615 1.583.615.264 0 .506-.033.725-.098l1.325.772.36-.622zM15.5 17.588c-.225-.36-.337-.94-.337-1.736 0-1.393.424-2.09 1.27-2.09.443 0 .77.167.977.5.224.362.336.936.336 1.723 0 1.404-.424 2.108-1.27 2.108-.445 0-.77-.167-.978-.5zm-1.658-.425c0 .47-.172.856-.516 1.156-.344.3-.803.45-1.384.45-.543 0-1.064-.172-1.573-.515l.237-.476c.438.22.833.328 1.19.328.332 0 .593-.073.783-.22a.754.754 0 00.3-.615c0-.33-.23-.61-.648-.845-.388-.213-1.163-.657-1.163-.657-.422-.307-.632-.636-.632-1.177 0-.45.157-.81.47-1.085.315-.278.72-.415 1.22-.415.512 0 .98.136 1.4.41l-.213.476a2.726 2.726 0 00-1.064-.23c-.283 0-.502.068-.654.206a.685.685 0 00-.248.524c0 .328.234.61.666.85.393.215 1.187.67 1.187.67.433.305.648.63.648 1.168zm9.382-5.852c-.535-.014-.95.04-1.297.188-.1.04-.26.04-.274.167.055.053.063.14.11.214.08.134.218.313.346.407.14.11.28.216.427.31.26.16.555.255.81.416.145.094.293.213.44.313.073.05.12.14.214.172v-.02c-.046-.06-.06-.147-.105-.214-.067-.067-.134-.127-.2-.193a3.223 3.223 0 00-.695-.675c-.214-.146-.682-.35-.77-.595l-.013-.014c.146-.013.32-.066.46-.106.227-.06.435-.047.67-.106.106-.027.213-.06.32-.094v-.06c-.12-.12-.21-.283-.334-.395a8.867 8.867 0 00-1.104-.823c-.21-.134-.476-.22-.697-.334-.08-.04-.214-.06-.26-.127-.12-.146-.19-.34-.275-.514a17.69 17.69 0 01-.547-1.163c-.12-.262-.193-.523-.34-.763-.69-1.137-1.437-1.826-2.586-2.5-.247-.14-.543-.2-.856-.274-.167-.008-.334-.02-.5-.027-.11-.047-.216-.174-.31-.235-.38-.24-1.364-.76-1.644-.072-.18.434.267.862.422 1.082.115.153.26.328.34.5.047.116.06.235.107.356.106.294.207.622.347.897.073.14.153.287.247.413.054.073.146.107.167.227-.094.136-.1.334-.154.5-.24.757-.146 1.693.194 2.25.107.166.362.534.703.393.3-.12.234-.5.32-.835.02-.08.007-.133.048-.187v.015c.094.188.188.367.274.555.206.328.566.668.867.895.16.12.287.328.487.402v-.02h-.015c-.043-.058-.1-.086-.154-.133a3.445 3.445 0 01-.35-.4 8.76 8.76 0 01-.747-1.218c-.11-.21-.202-.436-.29-.643-.04-.08-.04-.2-.107-.24-.1.146-.247.273-.32.453-.127.288-.14.642-.188 1.01-.027.007-.014 0-.027.014-.214-.052-.287-.274-.367-.46-.2-.475-.233-1.238-.06-1.785.047-.14.247-.582.167-.716-.042-.127-.174-.2-.247-.303a2.478 2.478 0 01-.24-.427c-.16-.374-.24-.788-.414-1.162-.08-.173-.22-.354-.334-.513-.127-.18-.267-.307-.368-.52-.033-.073-.08-.194-.027-.274.014-.054.042-.075.094-.09.088-.072.335.022.422.062.247.1.455.194.662.334.094.066.195.193.315.226h.14c.214.047.455.014.655.073.355.114.675.28.962.46a5.953 5.953 0 012.085 2.286c.08.154.115.295.188.455.14.33.313.663.455.982.14.315.275.636.476.897.1.14.502.213.682.286.133.06.34.115.46.188.23.14.454.3.67.454.11.076.443.243.463.378z"/></symbol>
  <symbol id="icon-mssql" viewBox="0 0 24 24"><path d="M4.724 2.505s-.08.127-.004.315c.046.116.186.256.34.404 0 0 1.615 1.576 1.813 1.804.895 1.033 1.284 2.05 1.32 3.453.022.9-.151 1.692-.573 2.613-.756 1.649-2.35 3.468-4.81 5.49l.36-.12c.233-.173.548-.359 1.292-.766 1.713-.936 3.636-1.798 5.999-2.686 3.399-1.277 8.99-2.776 12.172-3.263l.331-.051-.05-.08c-.292-.452-.49-.731-.73-1.027-.697-.863-1.542-1.567-2.577-2.146-1.422-.797-3.267-1.416-5.6-1.88a67.93 67.93 0 00-2.191-.375 209.29 209.29 0 01-3.924-.64c-.425-.075-1.06-.181-1.481-.272a9.404 9.404 0 01-.961-.258c-.268-.105-.645-.207-.726-.515zm.936.909c.003-.002.063.017.137.042.136.046.316.1.526.159.146.04.307.084.479.127.218.056.399.104.401.107.024.027.391 1.198.516 1.647.048.172.084.315.081.318a.789.789 0 01-.09-.14c-.424-.746-1.097-1.505-1.874-2.116a3.104 3.104 0 01-.176-.144zm1.79.494c.018-.001.099.012.195.034.619.136 1.725.35 2.435.47.119.02.216.04.216.047a.348.348 0 01-.098.062c-.119.06-.602.349-.763.457-.403.27-.766.559-1.03.821a5.4 5.4 0 01-.197.192c-.003 0-.022-.062-.041-.137a12.09 12.09 0 00-.65-1.779 1.801 1.801 0 01-.071-.165c0-.001 0-.002.004-.002zm3.147.598c.02.007.06.13.129.404a6.05 6.05 0 01.153 1.977l-.012.038-.187-.06c-.388-.124-1.02-.31-1.562-.46a6.625 6.625 0 01-.56-.17c0-.022.449-.471.642-.642.369-.326 1.362-1.098 1.397-1.087zm.25.036c.011-.01 1.504.248 2.182.378.506.097 1.237.25 1.281.269.022.008-.054.05-.297.16-.96.432-1.672.82-2.38 1.293-.186.124-.341.226-.344.226-.004 0-.006-.104-.006-.23 0-.69-.139-1.387-.391-1.976a.688.688 0 01-.045-.12zm3.86.764c.011.011-.038.306-.08.48-.132.54-.482 1.344-.914 2.099a2.26 2.26 0 01-.152.246 1.499 1.499 0 01-.219-.115c-.422-.247-.9-.48-1.425-.697a4.588 4.588 0 01-.278-.12c-.024-.022 1.143-.795 1.762-1.166.495-.297 1.292-.741 1.306-.727zm.276.043c.033 0 .695.18 1.037.283.853.255 1.837.614 2.475.904l.265.12-.187.043c-1.561.36-2.9.773-4.188 1.296-.107.044-.2.08-.207.08a.911.911 0 01.075-.185c.388-.823.638-1.687.703-2.42.006-.067.018-.121.027-.121zm-6.58 1.512c.01-.01.514.108.789.185.413.116 1.292.41 1.292.433 0 .004-.097.089-.215.188-.475.397-.934.813-1.483 1.343a5.27 5.27 0 01-.308.285c-.007 0-.01-.023-.006-.05.083-.611.065-1.395-.05-2.193a1.29 1.29 0 01-.02-.19zm10.61.01c.007.008-.234.385-.384.6-.22.314-.537.726-1.261 1.637l-.954 1.202a9.418 9.418 0 01-.269.333c-.003 0-.05-.066-.103-.146a7.584 7.584 0 00-1.47-1.625 9.59 9.59 0 00-.27-.218.427.427 0 01-.074-.063c0-.01.617-.274 1.088-.466a37.02 37.02 0 012.778-.99c.442-.135.912-.27.919-.264zm.278.073a.93.93 0 01.207.1 12.274 12.274 0 012.428 1.824c.194.19.667.683.66.687l-.363.029c-1.53.115-3.486.44-5.37.893-.128.03-.238.056-.246.056-.007 0 .133-.14.311-.312 1.107-1.063 1.611-1.734 2.205-2.934.088-.178.163-.333.166-.342h.002zm-8.088.83c.051.01.523.23.879.408.325.163.818.426.843.449.003.003-.17.093-.386.201-.683.342-1.268.664-1.878 1.037-.175.107-.32.194-.325.194-.015 0-.01-.013.088-.191a7.702 7.702 0 00.738-2.002c.014-.062.03-.1.041-.097zm-.475.084c.01.01-.112.46-.19.7a9.092 9.092 0 01-.835 1.808l-.09.147-.203-.197a2.671 2.671 0 00-.676-.5 1.009 1.009 0 01-.176-.102c0-.03.62-.593 1.098-.998.343-.29 1.064-.867 1.072-.858zm2.888 1.188l.177.115c.407.264.888.619 1.255.924.206.172.605.53.687.616l.044.047-.294.082a53.8 53.8 0 00-4.45 1.424c-.167.061-.31.112-.32.112-.021 0-.042.019.333-.326.96-.883 1.807-1.856 2.44-2.802zm-.759.19c.009.009-.492.71-.789 1.106-.356.473-.99 1.265-1.426 1.78a8.769 8.769 0 01-.346.397c-.01.003-.015-.05-.016-.133 0-.44-.112-.91-.308-1.308-.083-.168-.097-.208-.08-.224.068-.062 1.127-.666 1.794-1.023.459-.246 1.163-.604 1.171-.595zm-4.59 1.125a3.988 3.988 0 01.812.518c.008.005-.087.083-.21.172-.345.249-.87.644-1.173.886-.32.255-.331.263-.295.207.24-.367.36-.574.486-.84.113-.236.224-.516.304-.76a.675.675 0 01.077-.183zm1.223.96c.017-.003.04.028.139.175.207.31.366.722.407 1.058l.008.073-.497.192c-.89.346-1.711.687-2.266.94-.155.072-.428.202-.607.292-.179.09-.325.16-.325.156 0-.004.112-.089.25-.188 1.087-.79 2.025-1.654 2.732-2.519.075-.092.144-.172.153-.178a.016.016 0 01.006-.002zm-.564.14c.015.014-.401.484-.681.77-.7.715-1.396 1.275-2.256 1.821-.108.069-.206.13-.22.138-.023.014.008-.022.386-.434.238-.259.42-.474.628-.743.136-.177.162-.202.362-.346.537-.388 1.767-1.221 1.781-1.207zM9.925 0c-.08-.01-1.371.455-2.2.791-1.123.457-1.996.894-2.534 1.272-.2.14-.452.393-.488.49a.356.356 0 00-.021.123l.488.46 1.158.37L9.087 4l3.153.542.032-.27-.028-.005-.415-.066-.085-.148a27.702 27.702 0 01-1.177-2.325 12.264 12.264 0 01-.53-1.465C9.969.02 9.962.005 9.925 0zm-.061.186h.005c.003.003.017.105.032.225.062.508.176 1 .354 1.53.134.4.136.377-.024.332-.37-.103-2.032-.388-3.234-.555a8.796 8.796 0 01-.357-.053c-.015-.015.867-.477 1.258-.66.501-.232 1.867-.8 1.966-.819zM6.362 1.814l.141.048c.772.262 2.706.632 3.775.72.12.01.222.021.225.024.003.003-.1.058-.228.122-.515.258-1.083.573-1.476.819-.115.072-.22.13-.235.129a4.868 4.868 0 01-.17-.027l-.144-.023-.365-.355c-.641-.62-1.141-1.1-1.335-1.28zm-.143.114l.511.638c.282.35.564.699.626.774.063.075.111.138.108.14-.014.011-.74-.13-1.125-.219a8.532 8.532 0 01-.803-.212l-.2-.064.001-.049c.003-.245.312-.607.836-.976zm4.352.869c.015.001.032.032.077.131.124.272.51 1.008.603 1.15.03.047.08.05-.433-.033-1.23-.198-1.629-.265-1.629-.273a.36.36 0 01.083-.054 7.13 7.13 0 001.107-.767l.175-.147c.006-.005.012-.008.017-.007zm4.309 8.408l-4.808 1.568-4.18 1.846-1.17.31c-.298.282-.613.568-.948.86-.37.321-.716.612-.98.822a7.46 7.46 0 00-.953.945c-.332.414-.592.854-.704 1.193-.2.61-.103 1.228.285 1.798.495.728 1.48 1.468 2.625 1.972.585.256 1.57.588 2.31.774 1.233.312 3.614.65 4.926.7.266.01.62.01.637-.002.028-.019.233-.405.47-.89.806-1.646 1.389-3.19 1.703-4.508.19-.799.338-1.863.434-3.125.027-.354.037-1.533.016-1.934a13.564 13.564 0 00-.183-1.706.435.435 0 01-.012-.15c.014-.01.059-.025.65-.197zm-1.1.645c.045 0 .16 1.114.191 1.82.006.151.005.247-.004.247-.028 0-.615-.345-1.032-.606a28.716 28.716 0 01-1.162-.772c-.035-.028-.031-.029.266-.131.505-.174 1.704-.558 1.742-.558zm-2.448.803c.03 0 .115.047.315.172.75.47 1.766 1.035 2.2 1.225.136.06.151.036-.16.247-.662.45-1.486.892-2.497 1.342a7.59 7.59 0 01-.331.142.989.989 0 01.043-.2c.245-.905.383-1.82.387-2.554.002-.362.002-.364.037-.373h.006zm-.504.193c.021.022.006.834-.02 1.056a9.206 9.206 0 01-.418 1.837c-.014.017-.511-.468-.676-.66a4.918 4.918 0 01-.669-.973c-.082-.162-.214-.484-.202-.493.056-.04 1.971-.78 1.985-.767zm-2.375.936c.004 0 .008.001.01.004a.881.881 0 01.056.131c.116.315.376.782.602 1.08a6.247 6.247 0 001.017 1.06c.023.02.03.016-.562.24a48.53 48.53 0 01-2.294.8c-.327.106-.604.195-.615.2-.033.011-.023-.009.073-.158.427-.666 1.073-1.97 1.435-2.892.062-.16.122-.32.133-.356.015-.052.031-.07.08-.092a.149.149 0 01.065-.017zm-.728.3c.01.009-.174.398-.356.751-.351.686-.739 1.361-1.253 2.185l-.182.288c-.018.027-.026.018-.082-.094a3.307 3.307 0 01-.28-.842 3.39 3.39 0 01.02-1.083c.047-.227.045-.222.152-.276.462-.237 1.966-.942 1.981-.929zm6.268.255v.154a20.106 20.106 0 01-.255 2.992 9.362 9.362 0 01-1.898-.782c-.354-.194-.865-.507-.85-.522.003-.004.154-.083.334-.177.714-.37 1.395-.77 1.988-1.166.222-.148.555-.389.629-.454zM4.981 15.41c.015 0 .011.028-.012.161a4.137 4.137 0 00-.041.39c-.03.532.057.924.32 1.46.074.15.132.274.129.276-.027.023-2.43.726-3.186.933l-.435.12c-.027.008-.029.002-.02-.06.083-.533.49-1.232 1.058-1.82.378-.39.68-.622 1.195-.915a30.782 30.782 0 01.992-.545zm5.669 1.015c.002-.002.091.045.197.107.777.449 1.86.87 2.783 1.081l.084.02-.115.063c-.482.268-2.071.929-3.694 1.537a68.82 68.82 0 00-.513.194.314.314 0 01-.082.027c0-.004.067-.132.149-.286.456-.852.91-1.887 1.144-2.605.023-.073.044-.135.047-.138zm-.578.19a1.39 1.39 0 01-.063.169 23.534 23.534 0 01-1.261 2.54 9.009 9.009 0 01-.252.433c-.005 0-.114-.066-.244-.145-.77-.472-1.452-1.052-1.9-1.617l-.064-.08.332-.091a23.616 23.616 0 003.19-1.103c.142-.06.26-.109.262-.106zm3.59 1.253c.001 0 .002.001.002.003 0 .08-.183.828-.336 1.37-.128.453-.236.808-.435 1.437a8.533 8.533 0 01-.168.504 15.004 15.004 0 01-3-.841 7.964 7.964 0 01-.639-.283c-.006-.007.213-.11.486-.23 1.655-.721 3.369-1.543 3.955-1.896a.432.432 0 01.135-.064zm-8.287.283c.009.009-.454.671-1.1 1.576l-.587.823c-.097.139-.245.358-.329.488l-.153.236-.162-.137c-.191-.16-.525-.501-.677-.69-.312-.389-.523-.798-.607-1.174-.038-.174-.04-.262-.003-.273a176.26 176.26 0 011.934-.455l1.3-.305c.209-.05.382-.09.384-.089zm.465.178l.117.131a6.763 6.763 0 001.706 1.394c.115.066.202.124.195.128a281.967 281.967 0 01-4.33 1.53.858.858 0 01-.072-.048l-.067-.048.105-.152c.34-.493.768-1.035 1.705-2.162zm2.9 2.073c.003-.003.165.054.362.128.473.177.844.292 1.347.418.617.155 1.51.31 2.038.354.08.006.122.016.11.024-.025.016-.56.194-.953.318a258.526 258.526 0 01-4.636 1.363c-.035.007-.157-.025-.157-.04 0-.009.087-.119.193-.246a22.027 22.027 0 001.476-1.984 56.9 56.9 0 01.22-.335zm-.642.018c.005.005-.253.418-.706 1.132-.192.301-.409.645-.483.762-.075.118-.184.298-.242.4l-.107.185-.054-.014c-.13-.035-1.049-.36-1.291-.456-.301-.12-.615-.264-.846-.389-.289-.156-.655-.388-.627-.397l1.105-.302c1.592-.434 2.473-.683 3.05-.864.109-.033.199-.059.2-.057zm4.523 1.061h.006c.015.038-.575 1.67-.79 2.188-.049.116-.066.145-.092.143a55.54 55.54 0 01-1.433-.2c-.906-.138-2.423-.403-2.806-.49l-.089-.02.543-.122c1.164-.262 1.723-.403 2.29-.577a16.544 16.544 0 002.138-.824c.113-.052.21-.093.233-.098Z"/></symbol>
  <symbol id="icon-express" viewBox="0 0 24 24"><path d="M24 18.588a1.529 1.529 0 01-1.895-.72l-3.45-4.771-.5-.667-4.003 5.444a1.466 1.466 0 01-1.802.708l5.158-6.92-4.798-6.251a1.595 1.595 0 011.9.666l3.576 4.83 3.596-4.81a1.435 1.435 0 011.788-.668L21.708 7.9l-2.522 3.283a.666.666 0 000 .994l4.804 6.412zM.002 11.576l.42-2.075c1.154-4.103 5.858-5.81 9.094-3.27 1.895 1.489 2.368 3.597 2.275 5.973H1.116C.943 16.447 4.005 19.009 7.92 17.7a4.078 4.078 0 002.582-2.876c.207-.666.548-.78 1.174-.588a5.417 5.417 0 01-2.589 3.957 6.272 6.272 0 01-7.306-.933 6.575 6.575 0 01-1.64-3.858c0-.235-.08-.455-.134-.666A88.33 88.33 0 010 11.577zm1.127-.286h9.654c-.06-3.076-2.001-5.258-4.59-5.278-2.882-.04-4.944 2.094-5.071 5.264z"/></symbol>
  <symbol id="icon-nodejs" viewBox="0 0 24 24"><path d="M11.998,24c-0.321,0-0.641-0.084-0.922-0.247l-2.936-1.737c-0.438-0.245-0.224-0.332-0.08-0.383 c0.585-0.203,0.703-0.25,1.328-0.604c0.065-0.037,0.151-0.023,0.218,0.017l2.256,1.339c0.082,0.045,0.197,0.045,0.272,0l8.795-5.076 c0.082-0.047,0.134-0.141,0.134-0.238V6.921c0-0.099-0.053-0.192-0.137-0.242l-8.791-5.072c-0.081-0.047-0.189-0.047-0.271,0 L3.075,6.68C2.99,6.729,2.936,6.825,2.936,6.921v10.15c0,0.097,0.054,0.189,0.139,0.235l2.409,1.392 c1.307,0.654,2.108-0.116,2.108-0.89V7.787c0-0.142,0.114-0.253,0.256-0.253h1.115c0.139,0,0.255,0.112,0.255,0.253v10.021 c0,1.745-0.95,2.745-2.604,2.745c-0.508,0-0.909,0-2.026-0.551L2.28,18.675c-0.57-0.329-0.922-0.945-0.922-1.604V6.921 c0-0.659,0.353-1.275,0.922-1.603l8.795-5.082c0.557-0.315,1.296-0.315,1.848,0l8.794,5.082c0.57,0.329,0.924,0.944,0.924,1.603 v10.15c0,0.659-0.354,1.273-0.924,1.604l-8.794,5.078C12.643,23.916,12.324,24,11.998,24z M19.099,13.993 c0-1.9-1.284-2.406-3.987-2.763c-2.731-0.361-3.009-0.548-3.009-1.187c0-0.528,0.235-1.233,2.258-1.233 c1.807,0,2.473,0.389,2.747,1.607c0.024,0.115,0.129,0.199,0.247,0.199h1.141c0.071,0,0.138-0.031,0.186-0.081 c0.048-0.054,0.074-0.123,0.067-0.196c-0.177-2.098-1.571-3.076-4.388-3.076c-2.508,0-4.004,1.058-4.004,2.833 c0,1.925,1.488,2.457,3.895,2.695c2.88,0.282,3.103,0.703,3.103,1.269c0,0.983-0.789,1.402-2.642,1.402 c-2.327,0-2.839-0.584-3.011-1.742c-0.02-0.124-0.126-0.215-0.253-0.215h-1.137c-0.141,0-0.254,0.112-0.254,0.253 c0,1.482,0.806,3.248,4.655,3.248C17.501,17.007,19.099,15.91,19.099,13.993z"/></symbol>
  <symbol id="icon-nestjs" viewBox="0 0 24 24"><path d="M14.131.047c-.173 0-.334.037-.483.087.316.21.49.49.576.806.007.043.019.074.025.117a.681.681 0 0 1 .013.112c.024.545-.143.614-.26.936-.18.415-.13.861.086 1.22a.74.74 0 0 0 .074.137c-.235-1.568 1.073-1.803 1.314-2.293.019-.428-.334-.713-.613-.911a1.37 1.37 0 0 0-.732-.21zM16.102.4c-.024.143-.006.106-.012.18-.006.05-.006.112-.012.161-.013.05-.025.1-.044.149-.012.05-.03.1-.05.149l-.067.142c-.02.025-.031.05-.05.075l-.037.055a2.152 2.152 0 0 1-.093.124c-.037.038-.068.081-.112.112v.006c-.037.031-.074.068-.118.1-.13.099-.278.173-.415.266-.043.03-.087.056-.124.093a.906.906 0 0 0-.118.099c-.043.037-.074.074-.111.118-.031.037-.068.08-.093.124a1.582 1.582 0 0 0-.087.13c-.025.05-.043.093-.068.142-.019.05-.037.093-.05.143a2.007 2.007 0 0 0-.043.155c-.006.025-.006.056-.012.08-.007.025-.007.05-.013.075 0 .05-.006.105-.006.155 0 .037 0 .074.006.111 0 .05.006.1.019.155.006.05.018.1.03.15.02.049.032.098.05.148.013.03.031.062.044.087l-1.426-.552c-.241-.068-.477-.13-.719-.186l-.39-.093c-.372-.074-.75-.13-1.128-.167-.013 0-.019-.006-.031-.006A11.082 11.082 0 0 0 8.9 2.855c-.378.025-.756.074-1.134.136a12.45 12.45 0 0 0-.837.174l-.279.074c-.092.037-.18.08-.266.118l-.205.093c-.012.006-.024.006-.03.012-.063.031-.118.056-.174.087a2.738 2.738 0 0 0-.236.118c-.043.018-.086.043-.124.062a.559.559 0 0 1-.055.03c-.056.032-.112.063-.162.094a1.56 1.56 0 0 0-.148.093c-.044.03-.087.055-.124.086-.006.007-.013.007-.019.013-.037.025-.08.056-.118.087l-.012.012-.093.074c-.012.007-.025.019-.037.025-.031.025-.062.056-.093.08-.006.013-.019.02-.025.025-.037.038-.074.069-.111.106-.007 0-.007.006-.013.012a1.742 1.742 0 0 0-.111.106c-.007.006-.007.012-.013.012a1.454 1.454 0 0 0-.093.1c-.012.012-.03.024-.043.036a1.374 1.374 0 0 1-.106.112c-.006.012-.018.019-.024.03-.05.05-.093.1-.143.15l-.018.018c-.1.106-.205.211-.317.304-.111.1-.229.192-.347.273a3.777 3.777 0 0 1-.762.421c-.13.056-.267.106-.403.149-.26.056-.527.161-.756.18-.05 0-.105.012-.155.018l-.155.037-.149.056c-.05.019-.099.044-.148.068-.044.031-.093.056-.137.087a1.011 1.011 0 0 0-.124.106c-.043.03-.087.074-.124.111-.037.043-.074.08-.105.124-.031.05-.068.093-.093.143a1.092 1.092 0 0 0-.087.142c-.025.056-.05.106-.068.161-.019.05-.037.106-.056.161-.012.05-.025.1-.03.15 0 .005-.007.012-.007.018-.012.056-.012.13-.019.167C.006 7.95 0 7.986 0 8.03a.657.657 0 0 0 .074.31v.006c.019.037.044.075.069.112.024.037.05.074.08.111.031.031.068.069.106.1a.906.906 0 0 0 .117.099c.149.13.186.173.378.272.031.019.062.031.1.05.006 0 .012.006.018.006 0 .013 0 .019.006.031a1.272 1.272 0 0 0 .08.298c.02.037.032.074.05.111.007.013.013.025.02.031.024.05.049.093.073.137l.093.13c.031.037.069.08.106.118.037.037.074.068.118.105 0 0 .006.006.012.006.037.031.074.062.112.087a.986.986 0 0 0 .136.08c.043.025.093.05.142.069a.73.73 0 0 0 .124.043c.007.006.013.006.025.012.025.007.056.013.08.019-.018.335-.024.65.026.762.055.124.328-.254.6-.688-.036.428-.061.93 0 1.079.069.155.44-.329.763-.862 4.395-1.016 8.405 2.02 8.826 6.31-.08-.67-.905-1.041-1.283-.948-.186.458-.502 1.047-1.01 1.413.043-.41.025-.83-.062-1.24a4.009 4.009 0 0 1-.769 1.562c-.588.043-1.177-.242-1.487-.67-.025-.018-.031-.055-.05-.08-.018-.043-.037-.087-.05-.13a.515.515 0 0 1-.037-.13c-.006-.044-.006-.087-.006-.137v-.093a.992.992 0 0 1 .031-.13c.013-.043.025-.086.044-.13.024-.043.043-.087.074-.13.105-.298.105-.54-.087-.682a.706.706 0 0 0-.118-.062c-.024-.006-.055-.018-.08-.025l-.05-.018a.847.847 0 0 0-.13-.031.472.472 0 0 0-.13-.019 1.01 1.01 0 0 0-.136-.012c-.031 0-.062.006-.093.006a.484.484 0 0 0-.137.019c-.043.006-.086.012-.13.024a1.068 1.068 0 0 0-.13.044c-.043.018-.08.037-.124.056-.037.018-.074.043-.118.062-1.444.942-.582 3.148.403 3.787-.372.068-.75.148-.855.229l-.013.012c.267.161.546.298.837.416.397.13.818.247 1.004.297v.006a5.996 5.996 0 0 0 1.562.112c2.746-.192 4.996-2.281 5.405-5.033l.037.161c.019.112.043.23.056.347v.006c.012.056.018.112.025.162v.024c.006.056.012.112.012.162.006.068.012.136.012.204v.1c0 .03.007.067.007.098 0 .038-.007.075-.007.112v.087c0 .043-.006.08-.006.124 0 .025 0 .05-.006.08 0 .044-.006.087-.006.137-.006.018-.006.037-.006.055l-.02.143c0 .019 0 .037-.005.056-.007.062-.019.118-.025.18v.012l-.037.174v.018l-.037.167c0 .007-.007.02-.007.025a1.663 1.663 0 0 1-.043.168v.018c-.019.062-.037.118-.05.174-.006.006-.006.012-.006.012l-.056.186c-.024.062-.043.118-.068.18-.025.062-.043.124-.068.18-.025.062-.05.117-.074.18h-.007c-.024.055-.05.117-.08.173a.302.302 0 0 1-.019.043c-.006.006-.006.013-.012.019a5.867 5.867 0 0 1-1.742 2.082c-.05.031-.099.069-.149.106-.012.012-.03.018-.043.03a2.603 2.603 0 0 1-.136.094l.018.037h.007l.26-.037h.006c.161-.025.322-.056.483-.087.044-.006.093-.019.137-.031l.087-.019c.043-.006.086-.018.13-.024.037-.013.074-.02.111-.031.62-.15 1.221-.354 1.798-.595a9.926 9.926 0 0 1-3.85 3.142c.714-.05 1.426-.167 2.114-.366a9.903 9.903 0 0 0 5.857-4.68 9.893 9.893 0 0 1-1.667 3.986 9.758 9.758 0 0 0 1.655-1.376 9.824 9.824 0 0 0 2.61-5.268c.21.98.272 1.99.18 2.987 4.474-6.241.371-12.712-1.346-14.416-.006-.013-.012-.019-.012-.031-.006.006-.006.006-.006.012 0-.006 0-.006-.007-.012 0 .074-.006.148-.012.223a8.34 8.34 0 0 1-.062.415c-.03.136-.068.273-.105.41-.044.13-.093.266-.15.396a5.322 5.322 0 0 1-.185.378 4.735 4.735 0 0 1-.477.688c-.093.111-.192.21-.292.31a3.994 3.994 0 0 1-.18.155l-.142.124a3.459 3.459 0 0 1-.347.241 4.295 4.295 0 0 1-.366.211c-.13.062-.26.118-.39.174a4.364 4.364 0 0 1-.818.223c-.143.025-.285.037-.422.05a4.914 4.914 0 0 1-.297.012 4.66 4.66 0 0 1-.422-.025 3.137 3.137 0 0 1-.421-.062 3.136 3.136 0 0 1-.415-.105h-.007c.137-.013.273-.025.41-.05a4.493 4.493 0 0 0 .818-.223c.136-.05.266-.112.39-.174.13-.062.248-.13.372-.204.118-.08.235-.161.347-.248.112-.087.217-.18.316-.279.105-.093.198-.198.291-.304.093-.111.18-.223.26-.334.013-.019.026-.044.038-.062.062-.1.124-.199.18-.298a4.272 4.272 0 0 0 .334-.775c.044-.13.075-.266.106-.403.025-.142.05-.278.062-.415.012-.142.025-.285.025-.421 0-.1-.007-.199-.013-.298a6.726 6.726 0 0 0-.05-.415 4.493 4.493 0 0 0-.092-.415c-.044-.13-.087-.267-.137-.397-.05-.13-.111-.26-.173-.384-.069-.124-.137-.248-.211-.366a6.843 6.843 0 0 0-.248-.34c-.093-.106-.186-.212-.285-.317a3.878 3.878 0 0 0-.161-.155c-.28-.217-.57-.421-.862-.607a1.154 1.154 0 0 0-.124-.062 2.415 2.415 0 0 0-.589-.26Z"/></symbol>
  <symbol id="icon-laravel" viewBox="0 0 24 24"><path d="M23.642 5.43a.364.364 0 01.014.1v5.149c0 .135-.073.26-.189.326l-4.323 2.49v4.934a.378.378 0 01-.188.326L9.93 23.949a.316.316 0 01-.066.027c-.008.002-.016.008-.024.01a.348.348 0 01-.192 0c-.011-.002-.02-.008-.03-.012-.02-.008-.042-.014-.062-.025L.533 18.755a.376.376 0 01-.189-.326V2.974c0-.033.005-.066.014-.098.003-.012.01-.02.014-.032a.369.369 0 01.023-.058c.004-.013.015-.022.023-.033l.033-.045c.012-.01.025-.018.037-.027.014-.012.027-.024.041-.034H.53L5.043.05a.375.375 0 01.375 0L9.93 2.647h.002c.015.01.027.021.04.033l.038.027c.013.014.02.03.033.045.008.011.02.021.025.033.01.02.017.038.024.058.003.011.01.021.013.032.01.031.014.064.014.098v9.652l3.76-2.164V5.527c0-.033.004-.066.013-.098.003-.01.01-.02.013-.032a.487.487 0 01.024-.059c.007-.012.018-.02.025-.033.012-.015.021-.03.033-.043.012-.012.025-.02.037-.028.014-.01.026-.023.041-.032h.001l4.513-2.598a.375.375 0 01.375 0l4.513 2.598c.016.01.027.021.042.031.012.01.025.018.036.028.013.014.022.03.034.044.008.012.019.021.024.033.011.02.018.04.024.06.006.01.012.021.015.032zm-.74 5.032V6.179l-1.578.908-2.182 1.256v4.283zm-4.51 7.75v-4.287l-2.147 1.225-6.126 3.498v4.325zM1.093 3.624v14.588l8.273 4.761v-4.325l-4.322-2.445-.002-.003H5.04c-.014-.01-.025-.021-.04-.031-.011-.01-.024-.018-.035-.027l-.001-.002c-.013-.012-.021-.025-.031-.04-.01-.011-.021-.022-.028-.036h-.002c-.008-.014-.013-.031-.02-.047-.006-.016-.014-.027-.018-.043a.49.49 0 01-.008-.057c-.002-.014-.006-.027-.006-.041V5.789l-2.18-1.257zM5.23.81L1.47 2.974l3.76 2.164 3.758-2.164zm1.956 13.505l2.182-1.256V3.624l-1.58.91-2.182 1.255v9.435zm11.581-10.95l-3.76 2.163 3.76 2.163 3.759-2.164zm-.376 4.978L16.21 7.087 14.63 6.18v4.283l2.182 1.256 1.58.908zm-8.65 9.654l5.514-3.148 2.756-1.572-3.757-2.163-4.323 2.489-3.941 2.27z"/></symbol>
  <symbol id="icon-go" viewBox="0 0 24 24"><path d="M1.811 10.231c-.047 0-.058-.023-.035-.059l.246-.315c.023-.035.081-.058.128-.058h4.172c.046 0 .058.035.035.07l-.199.303c-.023.036-.082.07-.117.07zM.047 11.306c-.047 0-.059-.023-.035-.058l.245-.316c.023-.035.082-.058.129-.058h5.328c.047 0 .07.035.058.07l-.093.28c-.012.047-.058.07-.105.07zm2.828 1.075c-.047 0-.059-.035-.035-.07l.163-.292c.023-.035.07-.07.117-.07h2.337c.047 0 .07.035.07.082l-.023.28c0 .047-.047.082-.082.082zm12.129-2.36c-.736.187-1.239.327-1.963.514-.176.046-.187.058-.34-.117-.174-.199-.303-.327-.548-.444-.737-.362-1.45-.257-2.115.175-.795.514-1.204 1.274-1.192 2.22.011.935.654 1.706 1.577 1.835.795.105 1.46-.175 1.987-.77.105-.13.198-.27.315-.434H10.47c-.245 0-.304-.152-.222-.35.152-.362.432-.97.596-1.274a.315.315 0 01.292-.187h4.253c-.023.316-.023.631-.07.947a4.983 4.983 0 01-.958 2.29c-.841 1.11-1.94 1.8-3.33 1.986-1.145.152-2.209-.07-3.143-.77-.865-.655-1.356-1.52-1.484-2.595-.152-1.274.222-2.419.993-3.424.83-1.086 1.928-1.776 3.272-2.02 1.098-.2 2.15-.07 3.096.571.62.41 1.063.97 1.356 1.648.07.105.023.164-.117.2m3.868 6.461c-1.064-.024-2.034-.328-2.852-1.029a3.665 3.665 0 01-1.262-2.255c-.21-1.32.152-2.489.947-3.529.853-1.122 1.881-1.706 3.272-1.95 1.192-.21 2.314-.095 3.33.595.923.63 1.496 1.484 1.648 2.605.198 1.578-.257 2.863-1.344 3.962-.771.783-1.718 1.273-2.805 1.495-.315.06-.63.07-.934.106zm2.78-4.72c-.011-.153-.011-.27-.034-.387-.21-1.157-1.274-1.81-2.384-1.554-1.087.245-1.788.935-2.045 2.033-.21.912.234 1.835 1.075 2.21.643.28 1.285.244 1.905-.07.923-.48 1.425-1.228 1.484-2.233z"/></symbol>
  <symbol id="icon-gin" viewBox="0 0 24 24"><path d="M11.836 23.977c-2.0587-.1046-3.3698-.3594-4.468-.8684-.131-.0606-.1153-.0272-.278-.596-.2755-.9627-.5534-2.128-.7848-3.29-.135-.678-.1535-.7614-.4716-2.1176-.5104-2.1762-.6402-2.831-.804-4.0557-.1064-.7962.1223-1.3156.2754-.6255.6026 2.7148 1.124 4.6969 1.6753 6.3684.1901.5764.1752.5525.3347.537.1095-.0105.1097-.0096.0278.1811-.1118.2604-.0573.3991.2913.7409.2612.256.2638.2712.0407.2387-.174-.0254-.1655-.0434-.1023.2138.0295.1199.0809.3448.1141.4997.2644 1.2314.6094 1.8336 1.1121 1.941 1.4684.3139 3.6012.4502 5.4794.3503 2.1817-.116 2.7037-.1989 3.3812-.5368.4582-.2286.8528-.6569.611-.6632-.1781-.0047-.1948-.0464-.0437-.109.329-.1365.468-.2818.4411-.4612-.008-.0535.0021-.1094.0422-.2318.1232-.3762.1439-.6822.1123-1.664-.0146-.4543-.0136-.487.021-.6574.0912-.449.132-.7886.199-1.6564.0474-.6126.0627-.766.1118-1.1186.0491-.3532.0648-.5537.0929-1.1868.0549-1.2385.116-1.7317.2287-1.8443.1884-.1885.1874-.289-.006-.5633-.2205-.3129-.2198-.4765.003-.711.1085-.1142.1132-.242.0391-1.0652-.019-.2114-.0394-.5284-.0452-.7045-.0073-.217-.0169-.3202-.0297-.3202-.041 0-.306.2264-.8894.76-.6635.6068-.8368.75-1.2089.9984-.7674.5123-1.5042.7633-2.7787.9462-1.2864.1847-2.8008.1411-3.7922-.1092-.6681-.1686-1.055-.3507-1.8085-.8512-.7058-.4688-.6674-1.2277.079-1.5624.3362-.1507.076-.3149-.5986-.3778-.5074-.0474-.2495-.1461.3996-.153.7887-.0083 1.349-.2884 2.0736-1.0363.3034-.3131.374-.3746.7782-.677.6428-.4808.8696-.6895.972-.8947.0776-.155.0733-.3082-.0094-.3397-.0271-.0103-.0404-.029-.0404-.0566 0-.0517.1571-.0442-2.5615-.122-2.8682-.0822-5.0395-.2118-6.1476-.367-.2164-.0304-.1133.1615.1509.2806.0836.0377.0914.0714.0198.0852-.1952.0377-.1844.01-.1284.3283.2173 1.235.5548 1.5418 1.2152 1.1047.1309-.0866.1765-.1027.4961-.1753.7-.1589 1.4556-.2464 2.5838-.2993 1.1633-.0545 1.2892-.0588 1.3032-.0448.0305.0304-.5599.1101-1.5935.215-1.07.1086-1.4287.1577-1.926.2638-.1342.0286-.2802.0521-.3245.0522-.2895.0008-.7114.2931-.8644.5988-.1926.3851-.0152.6153.5107.6627.1761.0159.6063.0923.6826.1213.0658.025.0525.0663-.0337.1044-.0932.0413-.093.039-.0085.0922.1688.1066.0969.0998-.37-.0351-.7785-.225-.9368-.2379-.723-.0588.1015.085.0972.1096-.0132.076-.1712-.0519-.1676-.0865-.0636.6052.1332.8858.031.8419-.1545-.0665-.2554-1.25-.6686-2.3144-.484-1.2466.04.2318.0853.4146.2197.888.1811.638.2872 1.2493.2237 1.2885-.0297.0184-.1904-.4844-.3028-.947-.124-.5102-.1767-.8005-.4328-2.3821-.1298-.802-.2425-1.3464-.378-1.8265-.0773-.2736-.0497-.403.128-.6008.3644-.4052 1.2746-.6528 1.2746-.3466 0 .147-.187.2458-.6436.3402-.5204.1076-.5632.1751-.2897.4578.2486.2569 1.8142.4808 3.7254.5327.3663.01.9119.0259 1.2124.0354 2.1339.0674 4.3877.0663 4.5184-.0022.015-.0079.0837-.105.1527-.2158.2825-.454.552-.795.9445-1.1954.2782-.2838.2865-.2942.2417-.3055-.132-.033-.1427-.5621-.0127-.6282.2383-.121.3542-.2918.7283-1.0725.198-.4133.3093-.5955.4777-.7825.1457-.1618.2569-.385.421-.8452.1614-.4524.2639-.6635.3799-.7823.223-.2285.2324-.103.0363.4903-.162.49-.7111 1.686-1.1268 2.4542-.355.656-.307.8451.1881.7427.0883-.0182.1706-.024.2462-.017.1306.0119.2723-.0174.6213-.1284.2892-.092.3264-.0769.201.0818-.0891.1128-.0887.1142.053.1799.1405.065.1301.0783-.0611.0783-.265 0-.4498.1059-.4766.2732-.0118.074-.0118.074-.1226-.0473-.3058-.335-.6452-.2808-.851.136-.072.1458-.1856.2528-.2684.2528-.0513 0-.0393-.0339.082-.232.293-.4784.2985-.5618.028-.4245-.308.1563-.7837.8261-.803 1.1308-.017.2655.2956.4083.5327.2434.9017-.627 1.348-.8748.9794-.5438-.0765.0687-.159.148-.1832.1762-.1744.2028-.3106.2933-.5656.3757-.8493.2745-.8493.6558 0 .6355.2265-.0055.4225-.0022.4774.0079.412.0756 2.2334-.2378 3.1616-.544.5878-.1938.6844-.4293.3229-.7867-.4647-.4592-.959-.3684-.6466.1189.1936.302-.3882.6232-1.3705.7565-.4425.06-.6113.0898-.7738.1363-.1108.0318-.4379.0719-.704.0863-.3523.019-.4642-.0274-.1925-.08.4158-.0804.5822-.105 1.0783-.1598 1.3303-.1468 1.7592-.3548 1.7627-.8548.0019-.2777-.2227-.3198-.8506-.1598-.201.0513-.2093.0324-.0248-.0564.2821-.1358.2599-.2519-.0717-.374-.1107-.0408-.1107-.0408.0516-.0538.7422-.0595 1.1048-.3546.7593-.6182-.0677-.0516-.0657-.0685.01-.0837.029-.0058.086-.0344.1266-.0635.1634-.1174.2997.246.1556.4144-.198.2313-.0359.5312.357.6602.403.1323.5887-.0506.4222-.4158-.03-.0657-.089-.2578-.131-.4269-.2398-.9631-.7595-2.0407-.9843-2.0407-.0216 0-.036-.0196-.0475-.064-.2147-.8343-.2878-.9893-.5348-1.1333-.4195-.2445-.551-.6687-.1636-.5275.8873.3236 1.8223 1.4494 2.5325 3.0495.5654 1.274.6932 3.168.3239 4.8039-.203.8994-.363 2.6656-.5462 6.0301-.0749 1.3745-.1492 2.3884-.2385 3.2532-.0223.216-.0453.4696-.051.5635-.0438.708-.2035 2.0275-.3607 2.98-.033.1995-.0473.3696-.0585.6915-.0422 1.2204-.4315 1.8227-1.2581 1.9468a2.7189 2.7189 0 0 0-.325.075c-1.0801.3317-2.166.471-4.3425.557-.728.0288-.7087.0288-1.3064-.0016zm.2615-.2356c.0474-.0474-.2411-.0896-.8847-.1297-.1644-.0102-.3527-.026-.4184-.0352-.4177-.058-1.1698-.1029-1.1698-.0699 0 .1276 2.3564.3514 2.473.2348zm-4.0952-.8634c0-.0406-.3364-1.3698-.4044-1.5977-.1252-.42-.3766-1.0159-.4231-1.003-.0697.0192.0988.9043.2754 1.447.1744.5358.5521 1.3252.5521 1.1537zm-.5246-.1305c.0433-.2745-.0418-.6732-.3351-1.5704-.176-.5382-.2341-.7414-.276-.9641-.0441-.2356-.0402-.2248-.0799-.2188-.1655.0246-.151.285.054.9752.1484.4996.1654.5673.1879.7506.064.5203.4057 1.3021.449 1.0275zm-.7904-3.2816c-.0001-.3436-.0485-.6234-.2044-1.1826-.1744-.6253-.2435-.896-.2825-1.1058-.0745-.4017-.2292-.621-.1807-.2564.026.1948.215 1.1792.2665 1.3878.0233.094.0618.3268.0857.5174.0662.5282.1018.6734.197.8049.0977.1347.1185.1055.1184-.1653zm5.7823-8.2201c.047-.0521.0384-.1659-.0348-.4592-.1-.3999-.0996-.5862.0013-.7401.1707-.2607-.8164-.3768-1.398-.1645-.53.1934-.648.5174-.3192.877.1613.1766-.0747.272-.2973.1203-.3041-.2074-.2766-.8612.0363-.8612.0362 0 .106-.073.106-.111 0-.0561-.0674-.1035-.211-.148-.1984-.0617-.1974-.0741.0085-.108.4832-.0793.939-.4219 1.6589-1.2467.935-1.0714 1.3075-1.3927.8116-.7002-.2504.3497-.4599.592-.8783 1.016-.7501.7603-.8434.9222-.5313.9222.472 0 .6826-.1937 1.1142-1.0246.4076-.7848.6084-.9866.8963-.901.1217.0362.121.0386-.2186.8754-.314.7736-.2997.986.0543.8106.1767-.0875.17-.0762.2403-.4093.173-.8206.5299-1.9468.617-1.9468.1153 0 .0463.5054-.1424 1.0417-.2842.8081-.298 1.0686-.0684 1.2959.2501.2476.5305.202.7474-.1216.0793-.1184.1145-.1023.1763.0809.046.1363.0536.1408.244.1434.2617.0037.6195-.091.6392-.169.0064-.0254.0206-.0402.035-.0364.1408.0369.1388-.1065-.0025-.1673-.0918-.0395-.0998-.0645-.032-.0992.1499-.0764.3061.038.3061.2243 0 .0784.0186.0885.205.11 1.2175.1412 1.9496-.176 2.364-1.024.0706-.1445.205-.4086.299-.587.3348-.6367.4726-1.1026.4121-1.3938-.0352-.1699-.0169-.164-.3792-.12-1.8582.2256-3.5292.3794-4.933.454-.2677.0141-.5553.0298-.639.0348-.1525.009-.1525.009-.4526.3035-.4846.4754-.9042.8606-1.7005 1.5606-.2254.1982-.4329.3853-.461.4158-.0804.0868-.3442.2954-.7344.5806-.815.5957-1.2381 1.0543-1.0973 1.189.1613.1545 1.371.3751 2.378.4339.1692.0099.4035.029.521.0426.3097.036.319.0367.4797.0397.1296.0024.1506-.0015.1793-.0333zm4.9335-2.6883c-.6352-.103-1.2474-.4616-1.8828-1.103-.419-.4228-.3704-.4557.2256-.1524.4367.2222.5944.2777.7778.2734.0704-.0017.1626-.0037.2049-.0045.1903-.0038.9252.4017.8551.4718-.024.024-.159-.0192-.4196-.1342-.8347-.3685-1.3685-.3711-.8026-.0041.5953.3862 1.2494.571 1.64.4632.146-.0402.186-.0393.1923.0044.0242.1694-.3493.257-.7907.1854zm-3.5168 2.6903c.0746-.0187.3623-.0728.6394-.1204 1.31-.2247 1.6092-.3389 2.4225-.9243.552-.3972.6191-.7887.1254-.731-.5517.0644-.6125.1133-.7745.6229-.1885.5932-.272.665-.7748.6656-.5271.0006-.7398-.181-.889-.7596-.0528-.2045-.067-.2222-.2166-.2715-.5559-.1833-.8321.1858-.8322 1.112 0 .1586-.0097.1672-.1927.1722-.2981.0081-.3303-.091-.1542-.4747.2334-.509.2423-.6089.0614-.6855-.392-.1659-.7831.2546-.7091.7622.0663.4551.3933.6953.8023.5892.116-.0301.116-.0301.2182.0226.123.0634.1069.0622.274.0203zm1.822-.7768c.2327-.0208.3877-.1848.3877-.4102 0-.3258-.2825-.4682-.6292-.317-.1015.0442-.1223.0476-.2064.034-.3571-.0575-.5023.2388-.2548.52.1594.1812.2799.2108.7026.1732zm-3.2106-.9502c.373-.1904.8327-1.1638.6843-1.4494-.0437-.0844-.0598-.0769-.158.0736-.048.0734-.1677.2402-.266.3708-.458.6076-.5777.8672-.4559.989.0617.0617.0998.0648.1956.016zM10.302 21.2613c-.1018-.013-.4553-.0772-.7855-.1426-.6434-.1273-.9326-.1714-1.1234-.1714-.1763 0-.2162-.0341-.1669-.1425.0536-.1175.2172-.105.7572.0579.3561.1074.6022.167.7437.1803.061.0057.1494.021.1964.0338.1346.037 1.2056.1779 1.3516.1779.0044 0 .0033.0077-.0025.017-.0158.0257-.751.0177-.9706-.0104zm1.7587-.7484c-.2231-.1093-.2921-.2537-.3514-.7354-.0621-.5045-.1591-.66-.4529-.7263a4.0909 4.0909 0 0 1-.1152-.0274c-.0404-.011-.0716-.173-.0565-.2939.034-.2724.2048-.4916.7172-.9203.1127-.0943.2348-.2026.2713-.2405.3605-.3747 1.5306.1053 1.9894.816.3258.5047.322.6185-.028.8492-.4315.2844-.4933.3657-.4846.6372.003.0892.0065.2044.008.2561.0095.3235-.1771.4074-.6452.29-.3964-.0994-.5232-.0838-.6829.0842-.0597.0628-.0632.063-.1692.0111zm1.1381-.2254c.31-.1586.3749-.5512.1474-.892-.244-.3652-.5598-.2393-.5485.2187.0139.5637.1544.7995.4011.6733zm-.8657-.0823c.245-.1105.326-.537.1665-.8751-.1556-.3297-.4463-.1355-.5016.335a3.7214 3.7214 0 0 1-.033.2215c-.0671.345.062.4567.3681.3186zm-.5397-1.1367c.2714-.1816.542-.19 1.3747-.043.4775.0845.8627.0285.8621-.1253-.0023-.5725-.3483-.7422-1.2293-.603-.5545.0876-.7589.0879-1.0083.0016-.2747-.095-.6015.1652-.5532.4404.045.2565.3721.451.554.3293zm-2.0236-.8882c-1.242-.2611-2.0297-1.7477-1.3788-2.6022.1995-.2618.2624-.1704.1232.1789-.5807 1.4577 1.2303 2.8224 2.6353 1.9858 1.027-.6115 1.0144-2.1067-.0221-2.619a3.1056 3.1056 0 0 1-.1964-.1114c-.4015-.247-.8534-.2309-1.7165.0612-.504.1705-.4886.1706-.3296-.0011.6047-.6532 1.8983-.6335 2.6865.041 1.4324 1.2255.1142 3.4695-1.8016 3.0668zm5.0377-.1125c-1.9591-.3-2.6203-2.1867-1.1535-3.2915 1.3107-.9873 3.3222-.0095 3.2577 1.5836-.0398.9811-1.1207 1.8585-2.1042 1.708zm.4013-.3203c1.5031-.02 2.0059-1.9306.735-2.7936-.7982-.5421-2.0927-.295-2.5552.4876-.542.9171.0474 2.1467 1.1115 2.3185.0282.0045.1473.0043.2647-.0006.1174-.005.3172-.0103.444-.012zm-1.504-.8356c-.4402-.1245-.5095-.6544-.1381-1.0566.3355-.3633.817-.2062 1.0182.3322.0892.2387.058.2748-.2225.2581-.1793-.0106-.2639.0025-.2635.041 0 .0067.0603.0566.134.1109.2197.162.2247.2153.0267.2836-.144.0497-.4316.0657-.5548.0308zm-4.6535.1072c-.4663-.0444-.6306-.2972-.4418-.6793.224-.453.732-.5855 1.0146-.2645.4276.4858.1102 1.0088-.5728.9438zM5.2609 4.894c-.0061-.01.0088-.0465.0331-.0811.0243-.0347.0641-.0913.0885-.1258.0243-.0345.0483-.0939.0534-.132.0058-.043.0197-.0722.037-.0775.0706-.0214.6893-.1486.9498-.1953.6694-.12.851-.132 2.3652-.156 2.81-.0445 3.8851-.08 4.9246-.1626.3576-.0284.3387-.0321.4233.0843.1331.1833.0163.311-.3377.3693-.4252.0699-2.1378.0258-2.5939-.0668-.4837-.0983-.636-.0931-.7755.0264-.0812.0694-.0633.0696-.2775-.0018-.27-.09-.507-.1186-.8766-.106-.3002.0103-.417.0236-1.1357.129-.1925.0283-.4615.0599-.5976.0701-.4723.0356-1.013.1356-1.7562.325-.4978.1267-.507.1285-.5242.1008Zm11.997-1.2081c0-.0854.1102-.209.595-.6678.2691-.2547.4638-.4815.4638-.5401 0-.0556.0477-.0598.0665-.006.1044.2996-.1068.597-.6983.9833a31.133 31.133 0 0 0-.3207.2115c-.0847.0578-.1062.0617-.1062.019z"/></symbol>
  <symbol id="icon-react" viewBox="0 0 24 24"><path d="M14.23 12.004a2.236 2.236 0 0 1-2.235 2.236 2.236 2.236 0 0 1-2.236-2.236 2.236 2.236 0 0 1 2.235-2.236 2.236 2.236 0 0 1 2.236 2.236zm2.648-10.69c-1.346 0-3.107.96-4.888 2.622-1.78-1.653-3.542-2.602-4.887-2.602-.41 0-.783.093-1.106.278-1.375.793-1.683 3.264-.973 6.365C1.98 8.917 0 10.42 0 12.004c0 1.59 1.99 3.097 5.043 4.03-.704 3.113-.39 5.588.988 6.38.32.187.69.275 1.102.275 1.345 0 3.107-.96 4.888-2.624 1.78 1.654 3.542 2.603 4.887 2.603.41 0 .783-.09 1.106-.275 1.374-.792 1.683-3.263.973-6.365C22.02 15.096 24 13.59 24 12.004c0-1.59-1.99-3.097-5.043-4.032.704-3.11.39-5.587-.988-6.38-.318-.184-.688-.277-1.092-.278zm-.005 1.09v.006c.225 0 .406.044.558.127.666.382.955 1.835.73 3.704-.054.46-.142.945-.25 1.44-.96-.236-2.006-.417-3.107-.534-.66-.905-1.345-1.727-2.035-2.447 1.592-1.48 3.087-2.292 4.105-2.295zm-9.77.02c1.012 0 2.514.808 4.11 2.28-.686.72-1.37 1.537-2.02 2.442-1.107.117-2.154.298-3.113.538-.112-.49-.195-.964-.254-1.42-.23-1.868.054-3.32.714-3.707.19-.09.4-.127.563-.132zm4.882 3.05c.455.468.91.992 1.36 1.564-.44-.02-.89-.034-1.345-.034-.46 0-.915.01-1.36.034.44-.572.895-1.096 1.345-1.565zM12 8.1c.74 0 1.477.034 2.202.093.406.582.802 1.203 1.183 1.86.372.64.71 1.29 1.018 1.946-.308.655-.646 1.31-1.013 1.95-.38.66-.773 1.288-1.18 1.87-.728.063-1.466.098-2.21.098-.74 0-1.477-.035-2.202-.093-.406-.582-.802-1.204-1.183-1.86-.372-.64-.71-1.29-1.018-1.946.303-.657.646-1.313 1.013-1.954.38-.66.773-1.286 1.18-1.868.728-.064 1.466-.098 2.21-.098zm-3.635.254c-.24.377-.48.763-.704 1.16-.225.39-.435.782-.635 1.174-.265-.656-.49-1.31-.676-1.947.64-.15 1.315-.283 2.015-.386zm7.26 0c.695.103 1.365.23 2.006.387-.18.632-.405 1.282-.66 1.933-.2-.39-.41-.783-.64-1.174-.225-.392-.465-.774-.705-1.146zm3.063.675c.484.15.944.317 1.375.498 1.732.74 2.852 1.708 2.852 2.476-.005.768-1.125 1.74-2.857 2.475-.42.18-.88.342-1.355.493-.28-.958-.646-1.956-1.1-2.98.45-1.017.81-2.01 1.085-2.964zm-13.395.004c.278.96.645 1.957 1.1 2.98-.45 1.017-.812 2.01-1.086 2.964-.484-.15-.944-.318-1.37-.5-1.732-.737-2.852-1.706-2.852-2.474 0-.768 1.12-1.742 2.852-2.476.42-.18.88-.342 1.356-.494zm11.678 4.28c.265.657.49 1.312.676 1.948-.64.157-1.316.29-2.016.39.24-.375.48-.762.705-1.158.225-.39.435-.788.636-1.18zm-9.945.02c.2.392.41.783.64 1.175.23.39.465.772.705 1.143-.695-.102-1.365-.23-2.006-.386.18-.63.406-1.282.66-1.933zM17.92 16.32c.112.493.2.968.254 1.423.23 1.868-.054 3.32-.714 3.708-.147.09-.338.128-.563.128-1.012 0-2.514-.807-4.11-2.28.686-.72 1.37-1.536 2.02-2.44 1.107-.118 2.154-.3 3.113-.54zm-11.83.01c.96.234 2.006.415 3.107.532.66.905 1.345 1.727 2.035 2.446-1.595 1.483-3.092 2.295-4.11 2.295-.22-.005-.406-.05-.553-.132-.666-.38-.955-1.834-.73-3.703.054-.46.142-.944.25-1.438zm4.56.64c.44.02.89.034 1.345.034.46 0 .915-.01 1.36-.034-.44.572-.895 1.095-1.345 1.565-.455-.47-.91-.993-1.36-1.565z"/></symbol>
  <symbol id="icon-nextjs" viewBox="0 0 24 24"><path d="M18.665 21.978C16.758 23.255 14.465 24 12 24 5.377 24 0 18.623 0 12S5.377 0 12 0s12 5.377 12 12c0 3.583-1.574 6.801-4.067 9.001L9.219 7.2H7.2v9.596h1.615V9.251l9.85 12.727Zm-3.332-8.533 1.6 2.061V7.2h-1.6v6.245Z"/></symbol>
  <symbol id="icon-vue" viewBox="0 0 24 24"><path d="M24,1.61H14.06L12,5.16,9.94,1.61H0L12,22.39ZM12,14.08,5.16,2.23H9.59L12,6.41l2.41-4.18h4.43Z"/></symbol>
  <symbol id="icon-nuxt" viewBox="0 0 24 24"><path d="M13.4642 19.8295h8.9218c.2834 0 .5618-.0723.8072-.2098a1.5899 1.5899 0 0 0 .5908-.5732 1.5293 1.5293 0 0 0 .216-.783 1.529 1.529 0 0 0-.2167-.7828L17.7916 7.4142a1.5904 1.5904 0 0 0-.5907-.573 1.6524 1.6524 0 0 0-.807-.2099c-.2833 0-.5616.0724-.807.2098a1.5904 1.5904 0 0 0-.5907.5731L13.4642 9.99l-2.9954-5.0366a1.5913 1.5913 0 0 0-.591-.573 1.6533 1.6533 0 0 0-.8071-.2098c-.2834 0-.5617.0723-.8072.2097a1.5913 1.5913 0 0 0-.591.573L.2168 17.4808A1.5292 1.5292 0 0 0 0 18.2635c-.0001.2749.0744.545.216.783a1.59 1.59 0 0 0 .5908.5732c.2454.1375.5238.2098.8072.2098h5.6003c2.219 0 3.8554-.9454 4.9813-2.7899l2.7337-4.5922L16.3935 9.99l4.3944 7.382h-5.8586ZM7.123 17.3694l-3.9083-.0009 5.8586-9.8421 2.9232 4.921-1.9572 3.2892c-.7478 1.1967-1.5972 1.6328-2.9163 1.6328z"/></symbol>
  <style>
    .preview-bg{fill:#111113}
    .preview-grid{stroke:rgba(255,255,255,.08);stroke-width:1}
    .preview-title{fill:#f6f2f8;font:800 44px Arial,sans-serif}
    .preview-subtitle{fill:#a6a0ad;font:600 18px Arial,sans-serif}
    .preview-card{fill:#1b1b20;stroke:#34343c;stroke-width:1.5}
    .preview-frame{fill:rgba(255,255,255,.05);stroke:currentColor;stroke-opacity:.45;stroke-width:1.5}
    .preview-label{fill:#f6f2f8;font:700 16px Arial,sans-serif}
    .preview-icon{fill:currentColor}
  </style>
  <rect class="preview-bg" width="1200" height="760"/>
  <path class="preview-grid" d="M0 80H1200M0 160H1200M0 240H1200M0 320H1200M0 400H1200M0 480H1200M0 560H1200M0 640H1200M0 720H1200M80 0V760M160 0V760M240 0V760M320 0V760M400 0V760M480 0V760M560 0V760M640 0V760M720 0V760M800 0V760M880 0V760M960 0V760M1040 0V760M1120 0V760"/>
  <text class="preview-title" x="64" y="82">Tech Stack Sprite</text>
  <text class="preview-subtitle" x="64" y="118">Symbols are invisible by default; this preview renders each local logo tile.</text>
  <g transform="translate(64 170)">
    <g style="color:#e34f26" transform="translate(0 0)"><rect class="preview-card" width="164" height="96" rx="8"/><rect class="preview-frame" x="16" y="20" width="56" height="56" rx="8"/><use class="preview-icon" href="#icon-html" x="30" y="34" width="28" height="28"/><text class="preview-label" x="88" y="54">HTML</text></g>
    <g style="color:#663399" transform="translate(180 0)"><rect class="preview-card" width="164" height="96" rx="8"/><rect class="preview-frame" x="16" y="20" width="56" height="56" rx="8"/><use class="preview-icon" href="#icon-css" x="30" y="34" width="28" height="28"/><text class="preview-label" x="88" y="54">CSS</text></g>
    <g style="color:#f7df1e" transform="translate(360 0)"><rect class="preview-card" width="164" height="96" rx="8"/><rect class="preview-frame" x="16" y="20" width="56" height="56" rx="8"/><use class="preview-icon" href="#icon-javascript" x="30" y="34" width="28" height="28"/><text class="preview-label" x="88" y="54">JavaScript</text></g>
    <g style="color:#777bb4" transform="translate(540 0)"><rect class="preview-card" width="164" height="96" rx="8"/><rect class="preview-frame" x="16" y="20" width="56" height="56" rx="8"/><use class="preview-icon" href="#icon-php" x="30" y="34" width="28" height="28"/><text class="preview-label" x="88" y="54">PHP</text></g>
    <g style="color:#74a7ff" transform="translate(720 0)"><rect class="preview-card" width="164" height="96" rx="8"/><rect class="preview-frame" x="16" y="20" width="56" height="56" rx="8"/><use class="preview-icon" href="#icon-sql" x="30" y="34" width="28" height="28"/><text class="preview-label" x="88" y="54">SQL</text></g>
    <g style="color:#4169e1" transform="translate(900 0)"><rect class="preview-card" width="164" height="96" rx="8"/><rect class="preview-frame" x="16" y="20" width="56" height="56" rx="8"/><use class="preview-icon" href="#icon-postgresql" x="30" y="34" width="28" height="28"/><text class="preview-label" x="88" y="54">PostgreSQL</text></g>
    <g style="color:#4479a1" transform="translate(0 120)"><rect class="preview-card" width="164" height="96" rx="8"/><rect class="preview-frame" x="16" y="20" width="56" height="56" rx="8"/><use class="preview-icon" href="#icon-mysql" x="30" y="34" width="28" height="28"/><text class="preview-label" x="88" y="54">MySQL</text></g>
    <g style="color:#cc2927" transform="translate(180 120)"><rect class="preview-card" width="164" height="96" rx="8"/><rect class="preview-frame" x="16" y="20" width="56" height="56" rx="8"/><use class="preview-icon" href="#icon-mssql" x="30" y="34" width="28" height="28"/><text class="preview-label" x="88" y="44">Microsoft</text><text class="preview-label" x="88" y="64">SQL Server</text></g>
    <g style="color:#f6f2f8" transform="translate(360 120)"><rect class="preview-card" width="164" height="96" rx="8"/><rect class="preview-frame" x="16" y="20" width="56" height="56" rx="8"/><use class="preview-icon" href="#icon-express" x="30" y="34" width="28" height="28"/><text class="preview-label" x="88" y="54">Express</text></g>
    <g style="color:#5fa04e" transform="translate(540 120)"><rect class="preview-card" width="164" height="96" rx="8"/><rect class="preview-frame" x="16" y="20" width="56" height="56" rx="8"/><use class="preview-icon" href="#icon-nodejs" x="30" y="34" width="28" height="28"/><text class="preview-label" x="88" y="54">Node.js</text></g>
    <g style="color:#e0234e" transform="translate(720 120)"><rect class="preview-card" width="164" height="96" rx="8"/><rect class="preview-frame" x="16" y="20" width="56" height="56" rx="8"/><use class="preview-icon" href="#icon-nestjs" x="30" y="34" width="28" height="28"/><text class="preview-label" x="88" y="54">NestJS</text></g>
    <g style="color:#ff2d20" transform="translate(900 120)"><rect class="preview-card" width="164" height="96" rx="8"/><rect class="preview-frame" x="16" y="20" width="56" height="56" rx="8"/><use class="preview-icon" href="#icon-laravel" x="30" y="34" width="28" height="28"/><text class="preview-label" x="88" y="54">Laravel</text></g>
    <g style="color:#00add8" transform="translate(0 240)"><rect class="preview-card" width="164" height="96" rx="8"/><rect class="preview-frame" x="16" y="20" width="56" height="56" rx="8"/><use class="preview-icon" href="#icon-go" x="30" y="34" width="28" height="28"/><text class="preview-label" x="88" y="54">Go</text></g>
    <g style="color:#00acd7" transform="translate(180 240)"><rect class="preview-card" width="164" height="96" rx="8"/><rect class="preview-frame" x="16" y="20" width="56" height="56" rx="8"/><use class="preview-icon" href="#icon-gin" x="30" y="34" width="28" height="28"/><text class="preview-label" x="88" y="54">Gin</text></g>
    <g style="color:#61dafb" transform="translate(360 240)"><rect class="preview-card" width="164" height="96" rx="8"/><rect class="preview-frame" x="16" y="20" width="56" height="56" rx="8"/><use class="preview-icon" href="#icon-react" x="30" y="34" width="28" height="28"/><text class="preview-label" x="88" y="54">React</text></g>
    <g style="color:#f6f2f8" transform="translate(540 240)"><rect class="preview-card" width="164" height="96" rx="8"/><rect class="preview-frame" x="16" y="20" width="56" height="56" rx="8"/><use class="preview-icon" href="#icon-nextjs" x="30" y="34" width="28" height="28"/><text class="preview-label" x="88" y="54">Next.js</text></g>
    <g style="color:#4fc08d" transform="translate(720 240)"><rect class="preview-card" width="164" height="96" rx="8"/><rect class="preview-frame" x="16" y="20" width="56" height="56" rx="8"/><use class="preview-icon" href="#icon-vue" x="30" y="34" width="28" height="28"/><text class="preview-label" x="88" y="54">Vue</text></g>
    <g style="color:#00dc82" transform="translate(900 240)"><rect class="preview-card" width="164" height="96" rx="8"/><rect class="preview-frame" x="16" y="20" width="56" height="56" rx="8"/><use class="preview-icon" href="#icon-nuxt" x="30" y="34" width="28" height="28"/><text class="preview-label" x="88" y="54">Nuxt</text></g>
  </g>
</svg>
